HIERARCHY
ROOT SpineBase
{
  OFFSET 0.000000 0.000000 0.000000
  CHANNELS 6 Xposition Yposition Zposition Zrotation Xrotation Yrotation
  JOINT SpineMid
  {
    OFFSET 0.000000 28.827950 0.000000
    CHANNELS 3 Zrotation Xrotation Yrotation
    JOINT SpineShoulder
    {
      OFFSET -0.017654 21.454715 -0.564564
      CHANNELS 3 Zrotation Xrotation Yrotation
      JOINT Neck
      {
        OFFSET -0.028678 7.109924 -0.443565
        CHANNELS 3 Zrotation Xrotation Yrotation
        JOINT Head
        {
          OFFSET -1.690792 12.351420 -0.687553
          CHANNELS 3 Zrotation Xrotation Yrotation
          End Site
          {
            OFFSET 0 0 0
          }
        }
      }
      JOINT ShoulderLeft
      {
        OFFSET -15.764261 -2.325303 5.598170
        CHANNELS 3 Zrotation Xrotation Yrotation
        JOINT ElbowLeft
        {
          OFFSET -5.221649 -24.892850 3.507205
          CHANNELS 3 Zrotation Xrotation Yrotation
          JOINT WristLeft
          {
            OFFSET -4.083386 -19.837044 -3.040712
            CHANNELS 3 Zrotation Xrotation Yrotation
            JOINT HandLeft
            {
              OFFSET -0.540728 -7.707451 -1.787124
              CHANNELS 3 Zrotation Xrotation Yrotation
              JOINT HandTipLeft
              {
                OFFSET -0.373731 -6.875500 -1.487664
                CHANNELS 3 Zrotation Xrotation Yrotation
                End Site
                {
                  OFFSET 0 0 0
                }
              }
              JOINT ThumbLeft
              {
                OFFSET -2.350294 0.014739 -1.574947
                CHANNELS 3 Zrotation Xrotation Yrotation
                End Site
                {
                  OFFSET 0 0 0
                }
              }
            }
          }
        }
      }
      JOINT ShoulderRight
      {
        OFFSET 15.444901 -1.848042 -5.209893
        CHANNELS 3 Zrotation Xrotation Yrotation
        JOINT ElbowRight
        {
          OFFSET 6.472883 -26.564405 -1.747672
          CHANNELS 3 Zrotation Xrotation Yrotation
          JOINT WristRight
          {
            OFFSET 1.478915 -19.894849 -4.622166
            CHANNELS 3 Zrotation Xrotation Yrotation
            JOINT HandRight
            {
              OFFSET -0.970832 -8.120451 -0.912474
              CHANNELS 3 Zrotation Xrotation Yrotation
              JOINT HandTipRight
              {
                OFFSET 0.548346 -6.005617 -2.193658
                CHANNELS 3 Zrotation Xrotation Yrotation
                End Site
                {
                  OFFSET 0 0 0
                }
              }
              JOINT ThumbRight
              {
                OFFSET -3.774075 -1.042236 -0.913319
                CHANNELS 3 Zrotation Xrotation Yrotation
                End Site
                {
                  OFFSET 0 0 0
                }
              }
            }
          }
        }
      }
    }
  }
  JOINT HipLeft
  {
    OFFSET -7.386286 0.369379 -1.456915
    CHANNELS 3 Zrotation Xrotation Yrotation
    JOINT KneeLeft
    {
      OFFSET -7.656990 -31.951231 2.163824
      CHANNELS 3 Zrotation Xrotation Yrotation
      JOINT AnkleLeft
      {
        OFFSET -3.363467 -34.759580 5.126198
        CHANNELS 3 Zrotation Xrotation Yrotation
        JOINT FootLeft
        {
          OFFSET -3.173858 -3.886540 -12.396608
          CHANNELS 3 Zrotation Xrotation Yrotation
          End Site
          {
            OFFSET 0 0 0
          }
        }
      }
    }
  }
  JOINT HipRight
  {
    OFFSET 6.827743 0.977224 -4.568231
    CHANNELS 3 Zrotation Xrotation Yrotation
    JOINT KneeRight
    {
      OFFSET 3.278839 -27.399270 2.549579
      CHANNELS 3 Zrotation Xrotation Yrotation
      JOINT AnkleRight
      {
        OFFSET 0.369283 -37.798137 8.644037
        CHANNELS 3 Zrotation Xrotation Yrotation
        JOINT FootRight
        {
          OFFSET -1.422866 -8.236170 -5.098381
          CHANNELS 3 Zrotation Xrotation Yrotation
          End Site
          {
            OFFSET 0 0 0
          }
        }
      }
    }
  }
}
MOTION
Frames: 11
Frame Time: 0.033333
32.307931 73.010506 366.171827 1.003688 1.602831 12.755959 0.179203 -0.208597 -12.731733 0.098578 -0.121672 0.057146 11.923033 -0.854747 0.939434 0.000000 0.000000 0.000000 -51.894840 44.530152 3.534520 78.722462 65.682452 -6.645849 -53.993821 47.885653 -34.433948 48.596582 3.838696 53.834187 0.000000 0.000000 0.000000 0.000000 0.000000 0.000000 3.640323 0.030280 -0.044746 -4.360864 -2.258302 -0.250383 -2.566718 5.217009 0.020675 -0.407871 -14.882009 -0.127892 0.000000 0.000000 0.000000 0.000000 0.000000 0.000000 -0.450288 -0.605831 -12.942353 -0.533138 -2.207446 0.318927 1.103878 -2.315257 -1.371243 0.000000 0.000000 0.000000 -1.333155 -1.341349 -12.785606 1.105614 -0.474058 0.252529 -10.527433 34.394050 2.127892 0.000000 0.000000 0.000000
32.264341 72.983238 366.149186 1.023647 1.628618 12.657057 0.175991 -0.223254 -12.632583 0.103016 -0.128181 0.058311 11.740801 -1.034344 0.922966 0.000000 0.000000 0.000000 -51.840731 44.502385 3.498834 77.874282 66.049274 -6.551881 -39.288119 39.266886 -28.484647 35.594510 -6.856541 41.485772 0.000000 0.000000 0.000000 0.000000 0.000000 0.000000 3.509694 -0.131025 -0.071869 -4.535811 -2.527675 -0.186118 -1.646685 6.223204 -0.171743 -1.937862 -13.126325 0.438633 0.000000 0.000000 0.000000 0.000000 0.000000 0.000000 -0.490645 -0.704421 -12.824899 -0.312194 -2.339012 0.359747 0.589328 -0.570416 -1.709781 0.000000 0.000000 0.000000 -1.355979 -1.364418 -12.687754 1.067599 -0.706305 0.243470 -10.661184 35.715348 2.197177 0.000000 0.000000 0.000000
32.186049 72.984102 366.141608 1.002858 1.663675 12.600684 0.177916 -0.231310 -12.576486 0.102016 -0.122966 0.057664 11.677469 -1.161359 0.922803 0.000000 0.000000 0.000000 -51.629229 43.947378 3.256735 77.609723 66.619468 -7.352307 -33.240961 38.834180 -26.495468 29.174616 -14.251564 35.607082 0.000000 0.000000 0.000000 0.000000 0.000000 0.000000 3.583099 -0.418586 -0.121783 -4.744479 -2.639867 -0.106673 -1.218572 7.572082 -0.332337 -1.822968 -12.418052 0.660156 0.000000 0.000000 0.000000 0.000000 0.000000 0.000000 -0.424167 -0.844757 -12.740536 -0.200136 -2.332453 0.373943 0.055301 1.566449 -2.206285 0.000000 0.000000 0.000000 -1.342012 -1.404500 -12.631695 1.120362 -1.039250 0.255676 -10.829903 37.842583 2.160530 0.000000 0.000000 0.000000
32.119300 72.998376 366.200765 0.975569 1.679358 12.663926 0.194459 -0.227415 -12.639582 0.101008 -0.110907 0.057156 11.564292 -1.057389 0.924811 0.000000 0.000000 0.000000 -51.347587 42.285780 2.675078 81.713036 68.658694 -12.897861 -31.581145 33.877006 -24.171251 26.335148 -14.924792 32.318534 0.000000 0.000000 0.000000 0.000000 0.000000 0.000000 3.863219 -0.862055 -0.211508 -5.331573 -2.183434 0.096065 -0.259170 7.468246 -0.532787 -2.529032 -10.877463 0.889383 0.000000 0.000000 0.000000 0.000000 0.000000 0.000000 -0.363239 -0.952929 -12.779356 -0.139983 -2.306922 0.376730 -0.841819 5.988286 -2.886529 0.000000 0.000000 0.000000 -0.737028 -2.070676 -12.670851 0.548640 -0.786443 0.274956 -11.080059 40.454677 2.049982 0.000000 0.000000 0.000000
32.047919 73.031826 366.235781 0.940337 1.696201 12.793191 0.208219 -0.225783 -12.768862 0.095285 -0.100961 0.055929 11.493873 -1.053190 0.926870 0.000000 0.000000 0.000000 -51.253257 41.687676 2.466466 81.706803 69.327578 -13.900291 -19.423988 19.169886 -11.397662 10.274221 -10.513970 15.576293 0.000000 0.000000 0.000000 0.000000 0.000000 0.000000 3.882904 -1.088633 -0.244976 -5.460734 -1.910027 0.187550 0.062627 8.307369 -0.715189 -3.967059 -10.064499 1.447950 0.000000 0.000000 0.000000 0.000000 0.000000 0.000000 -0.289136 -1.058633 -12.884965 -0.100973 -2.427886 0.392317 -0.124858 1.794253 -2.369625 0.000000 0.000000 0.000000 -0.591542 -2.255595 -12.796368 0.483786 -0.474818 0.295047 -11.262079 43.062265 1.847785 0.000000 0.000000 0.000000
31.980925 73.060308 366.245934 0.920804 1.704756 12.918557 0.205935 -0.220329 -12.894704 0.077141 -0.091977 0.053696 11.435956 -1.026219 0.928317 0.000000 0.000000 0.000000 -51.262618 41.360493 2.373484 82.004185 70.173625 -15.007040 -14.404886 12.496240 -5.250139 4.312580 -3.419727 7.759437 0.000000 0.000000 0.000000 0.000000 0.000000 0.000000 3.917074 -1.204309 -0.258201 -5.570173 -1.530999 0.261473 -0.156605 8.851020 -0.794366 -4.565550 -9.819305 1.809969 0.000000 0.000000 0.000000 0.000000 0.000000 0.000000 -0.224423 -1.115901 -12.996437 -0.188362 -2.328575 0.368241 0.365316 -0.435354 -2.221115 0.000000 0.000000 0.000000 -0.486810 -2.345655 -12.914507 0.471496 -0.293421 0.312755 -11.438895 43.016851 1.880058 0.000000 0.000000 0.000000
31.909787 73.097651 366.247864 0.891681 1.687041 13.081714 0.208377 -0.215694 -13.058123 0.068070 -0.086793 0.051913 11.399621 -0.811914 0.929600 0.000000 0.000000 0.000000 -51.318685 40.895471 2.271734 83.553683 70.089338 -16.179405 -15.635189 12.831915 -6.239864 5.574410 -1.396071 8.260036 0.000000 0.000000 0.000000 0.000000 0.000000 0.000000 3.913872 -1.201480 -0.255129 -5.856181 -1.232770 0.354514 -0.206945 9.670801 -0.944297 -3.859748 -10.406661 1.843977 0.000000 0.000000 0.000000 0.000000 0.000000 0.000000 -0.153816 -1.113820 -13.154935 -0.330009 -2.129789 0.327825 0.819314 -2.271430 -2.070966 0.000000 0.000000 0.000000 -0.335575 -2.444067 -13.067623 0.367260 -0.002477 0.317253 -10.542588 42.490060 1.113176 0.000000 0.000000 0.000000
31.808054 73.134834 366.223043 0.811890 1.677088 13.212954 0.224125 -0.221001 -13.189622 0.076144 -0.089171 0.050184 11.519726 -0.638828 0.939878 0.000000 0.000000 0.000000 -51.327843 40.425329 2.166809 85.194781 70.013102 -17.474169 -18.228858 15.218691 -8.940739 9.377113 -2.493179 12.465694 0.000000 0.000000 0.000000 0.000000 0.000000 0.000000 3.968103 -1.151281 -0.244778 -6.230630 -1.005644 0.447674 -0.127047 10.741473 -1.138197 -2.816639 -12.376365 1.694822 0.000000 0.000000 0.000000 0.000000 0.000000 0.000000 0.029227 -1.098156 -13.286543 -0.613846 -1.955615 0.277897 1.234127 -3.514455 -1.950178 0.000000 0.000000 0.000000 -0.106734 -2.512068 -13.178434 0.242554 0.345920 0.313291 -10.340435 39.333528 1.133778 0.000000 0.000000 0.000000
31.671133 73.170845 366.165605 0.692189 1.708080 13.367629 0.245025 -0.249166 -13.344616 0.083266 -0.102697 0.047428 11.712900 -0.513458 0.956056 0.000000 0.000000 0.000000 -51.251868 39.916438 2.033620 87.184833 69.611823 -18.776132 -26.609056 23.293566 -17.092551 21.236660 -4.238207 25.831460 0.000000 0.000000 0.000000 0.000000 0.000000 0.000000 4.088824 -1.084207 -0.227979 -6.692232 -0.725120 0.554486 0.092368 11.708591 -1.361078 -2.212356 -13.239692 1.775411 0.000000 0.000000 0.000000 0.000000 0.000000 0.000000 0.331216 -1.250067 -13.406441 -0.937817 -1.721432 0.213932 1.425810 -4.035116 -1.904440 0.000000 0.000000 0.000000 0.198227 -2.710427 -13.310548 0.036846 0.543775 0.307904 -11.060530 30.499354 2.459170 0.000000 0.000000 0.000000
31.543750 73.188415 366.090475 0.586391 1.735647 13.447557 0.253997 -0.258530 -13.425439 0.101320 -0.122025 0.045486 11.940678 -0.485110 0.973488 0.000000 0.000000 0.000000 -51.247049 39.446411 1.921956 89.405381 68.086746 -19.027277 -48.871276 41.204983 -31.581113 46.441683 6.040195 52.253591 0.000000 0.000000 0.000000 0.000000 0.000000 0.000000 4.156443 -0.989862 -0.202946 -7.024528 -0.414482 0.635925 0.509824 11.979280 -1.560441 -2.669400 -13.179410 1.971064 0.000000 0.000000 0.000000 0.000000 0.000000 0.000000 0.606352 -1.329725 -13.469219 -1.202643 -1.660635 0.182814 1.443155 -3.743873 -1.968806 0.000000 0.000000 0.000000 0.530366 -2.743633 -13.348446 -0.046550 0.341943 0.312601 -11.511191 22.726786 3.418563 0.000000 0.000000 0.000000
31.445494 73.197840 366.043493 0.522935 1.745359 13.387824 0.249181 -0.250674 -13.366861 0.121437 -0.142914 0.044583 12.070808 -0.472188 0.981960 0.000000 0.000000 0.000000 -51.292635 39.434313 1.947782 90.015307 66.750498 -18.032222 -48.676110 42.097578 -31.140700 43.970341 5.521178 49.655900 0.000000 0.000000 0.000000 0.000000 0.000000 0.000000 4.202025 -0.848925 -0.172707 -7.335887 -0.277885 0.687746 1.350717 11.952094 -1.791222 -2.922702 -14.061242 1.882345 0.000000 0.000000 0.000000 0.000000 0.000000 0.000000 0.798376 -1.344550 -13.404845 -1.339967 -1.710925 0.181766 1.234529 -2.698395 -2.076594 0.000000 0.000000 0.000000 0.682204 -2.752641 -13.271388 -0.014088 0.220383 0.327643 -12.995279 21.058915 4.561112 0.000000 0.000000 0.000000
